<?xml version="1.0" encoding="utf-8"?>
<!-- Generator: Adobe Illustrator 18.1.1, SVG Export Plug-In . SVG Version: 6.00 Build 0)  -->
<svg version="1.1" id="Layer_1" xmlns="http://www.w3.org/2000/svg" xmlns:xlink="http://www.w3.org/1999/xlink" x="0px" y="0px"
	 viewBox="60.2 -53 393.5 393.4" enable-background="new 60.2 -53 393.5 393.4" xml:space="preserve">
<path fill="#475D87" d="M445.3,279.6L380,214.4c-9.2-9.2-22.8-11-32.3-4.9l-25.3-25.3c18.4-24.8,29.4-55.6,29.4-89.1
	c0-81.7-65.3-148-145.8-148S60.2,13.3,60.2,95S125.5,243,206,243c34.8,0,66.7-12.3,91.8-33l24.7,24.7c-5.9,9.6-4.1,23,5,32.2
	l65.2,65.2c10.5,10.5,26.7,11.3,36.2,1.9l18.3-18.3C456.6,306.3,455.8,290.1,445.3,279.6z"/>
<circle id="XMLID_1_" fill="#FFFFFF" cx="206.3" cy="93.8" r="118.8"/>
<text transform="matrix(1 0 0 1 158.5625 143.8262)" fill="#355A87" stroke="#355A87" stroke-width="20" stroke-miterlimit="10" font-family="'Dosis-SemiBold'" font-size="140.625">ff</text>
<text transform="matrix(1 0 0 1 158.5625 143.7686)" fill="#49C8F0" font-family="'Dosis-SemiBold'" font-size="140.625">ff</text>
</svg>
