<?xml version="1.0" encoding="utf-8"?>
<!-- Generator: Adobe Illustrator 18.1.1, SVG Export Plug-In . SVG Version: 6.00 Build 0)  -->
<svg version="1.1" id="root" xmlns="http://www.w3.org/2000/svg" xmlns:xlink="http://www.w3.org/1999/xlink" x="0px" y="0px"
	 viewBox="0.9 456.5 1202.3 289.6" enable-background="new 0.9 456.5 1202.3 289.6" xml:space="preserve">
<rect x="0.9" y="456.5" width="1202.3" height="289.6"/>
<g id="finder_1_" display="none" enable-background="new    ">
	<path display="inline" fill="#31C5F4" stroke="#475D87" stroke-width="80" stroke-miterlimit="10" d="M1146.3,584.5
		c-3.7,0-7.2,0.8-10.7,2.4c-3.5,1.6-6.5,3.9-9.2,7c-2.6,3.1-4.9,6.8-6.5,11.1c-1.6,4.3-2.4,9.2-2.4,14.5v48.6c0,2-1.3,3.9-3.7,5.7
		c-2.4,1.8-5.5,2.6-9.2,2.6s-6.5-0.8-8.8-2.6s-3.3-3.7-3.3-5.7v-96c0-2.4,1.1-4.3,3.3-5.7c2.2-1.5,5.1-2.2,8.8-2.2
		c3.1,0,5.9,0.8,8,2.2c2.2,1.5,3.3,3.5,3.3,5.7v10.4c1.3-2.4,2.8-4.9,4.9-7.4c2-2.4,4.3-4.5,7-6.3c2.7-1.8,5.5-3.5,8.5-4.5
		c3.1-1.1,6.3-1.6,9.8-1.6h7.6c2.4,0,4.7,1.1,6.8,3.3c1.8,2,2.8,4.7,2.8,7.8s-1.1,5.7-2.8,8c-1.8,2-4.1,3.3-6.8,3.3h-7.4V584.5z"/>
	<path display="inline" fill="#31C5F4" stroke="#475D87" stroke-width="80" stroke-miterlimit="10" d="M1025.4,562.5
		c6.3,0,12.2,1.1,17.9,3.3c5.7,2,10.7,5.1,15.1,9c4.3,3.9,7.8,8.5,10.4,13.9c2.4,5.3,3.9,11.2,3.9,17.7c0,4.9-0.6,8.8-1.8,11.4
		c-1.3,2.8-2.8,4.7-4.9,6.1c-2,1.3-4.3,2-7,2.4c-2.6,0.4-5.3,0.4-8,0.4h-50.2v5.5c0,8,2.8,14.3,8.5,19c5.7,4.5,13.1,7,22.3,7
		c4.3,0,8-0.4,10.9-1.5c2.8-1.1,5.5-2,7.6-3.1c2-1.1,4.1-2,5.7-3.1c1.6-1.1,3.3-1.5,4.9-1.5c3.1,0,5.3,1.3,7.2,3.9
		c1.8,2.6,2.6,5.1,2.6,7.2c0,1.8-0.8,3.7-2.6,5.7c-1.8,2-4.5,4.1-8,5.9c-3.5,1.8-7.6,3.3-12.5,4.5c-4.9,1.3-10.2,1.8-16.4,1.8
		c-8.1,0-15.5-1.3-22.3-3.5c-6.8-2.2-12.5-5.5-17.4-9.6c-4.9-4.1-8.8-9-11.4-14.9c-2.6-5.7-4.1-12.2-4.1-19.4v-22.5
		c0-6.1,1.3-12,3.9-17.7c2.6-5.5,6.1-10.4,10.7-14.7c4.5-4.3,9.6-7.6,15.7-10C1012.1,563.8,1018.7,562.5,1025.4,562.5z
		 M1040.3,611.3c3.5,0,5.7-0.4,7-1.5c1.3-1.1,1.8-2.8,1.8-5.7c0-6.3-2.2-11.6-7-16.1c-4.5-4.5-10.2-6.8-17.2-6.8
		c-3.3,0-6.5,0.6-9.4,1.6c-2.8,1.1-5.5,2.6-7.8,4.7c-2.2,2-3.9,4.3-5.3,7c-1.3,2.6-1.8,5.7-1.8,9v7.6h39.7L1040.3,611.3
		L1040.3,611.3z"/>
	<path display="inline" fill="#31C5F4" stroke="#475D87" stroke-width="80" stroke-miterlimit="10" d="M941.6,497
		c3.7,0,6.5,0.8,9,2.2c2.2,1.5,3.5,3.5,3.5,5.7v163c0,2-1.3,3.9-3.5,5.7c-2.2,1.8-5.3,2.6-9,2.6c-3.3,0-5.9-0.8-8.1-2.6
		c-2.2-1.8-3.3-3.7-3.3-5.7v-8.3c-2.4,4.9-6.5,9.2-12.5,12.9c-5.9,3.7-12.7,5.5-20.3,5.5c-5.5,0-10.9-1.3-15.9-3.9
		c-5.1-2.6-9.4-6.1-13.3-10.4s-7-9.4-9.2-15.1s-3.5-11.6-3.5-17.7v-21.6c0-6.3,1.1-12.2,3.3-17.9c2.2-5.7,5.3-10.7,9.2-14.9
		c3.9-4.3,8.3-7.6,13.5-10c5.1-2.4,10.7-3.7,16.6-3.7c7.6,0,13.9,1.8,19.2,5.5c5.1,3.7,9,8,11.6,12.5v-75.5c0-2.4,1.3-4.3,3.5-5.7
		C934.9,497.7,937.9,497,941.6,497z M880.5,630.9c0,3.1,0.6,6.3,1.8,9.2c1.3,3.1,3.1,5.7,5.3,8c2.2,2.4,4.7,4.3,7.6,5.7
		c2.8,1.5,5.9,2,9.2,2c3.5,0,6.8-0.8,9.6-2.2c2.8-1.5,5.5-3.3,7.8-5.5c2.2-2,3.9-4.3,5.3-6.5c1.3-2.2,1.8-4.1,1.8-5.5v-27
		c0-3.9-0.6-7.2-2-10.4c-1.5-3.3-3.3-5.7-5.5-7.8s-4.9-3.7-7.8-4.9c-2.8-1.1-5.7-1.6-8.8-1.6c-3.3,0-6.5,0.6-9.4,2
		c-2.8,1.5-5.5,3.3-7.8,5.5s-3.9,4.9-5.3,8c-1.3,3.1-1.8,5.9-1.8,9L880.5,630.9L880.5,630.9z"/>
	<path display="inline" fill="#31C5F4" stroke="#475D87" stroke-width="80" stroke-miterlimit="10" d="M763.1,667.9
		c0,2-1.3,3.9-3.9,5.7c-2.4,1.8-5.5,2.6-8.8,2.6c-3.7,0-6.5-0.8-9-2.6c-2.2-1.8-3.5-3.7-3.5-5.7v-96c0-2.4,1.3-4.3,3.5-5.7
		c2.2-1.5,5.3-2.2,9-2.2c3.1,0,5.7,0.8,8,2.2c2,1.5,3.3,3.5,3.3,5.7v8.5c2.4-4.5,6.3-8.8,11.6-12.5c5.3-3.7,12-5.5,20.3-5.5
		c5.5,0,10.9,1.3,15.7,3.7c4.9,2.4,9.4,5.7,13.1,10c3.7,4.3,6.8,9.2,9,14.9s3.3,11.6,3.3,17.9v58.9c0,2.6-1.3,4.7-3.9,6.1
		c-2.6,1.5-5.5,2-8.5,2c-2.8,0-5.7-0.6-8.3-2c-2.6-1.5-4.1-3.5-4.1-6.1V609c0-3.1-0.6-5.9-1.8-9c-1.3-3.1-3.1-5.7-5.1-8
		s-4.7-4.1-7.6-5.5c-2.8-1.5-6.1-2-9.4-2c-2.8,0-5.7,0.6-8.3,1.6c-2.8,1.1-5.3,2.6-7.4,4.9c-2,2-3.9,4.7-5.1,7.8s-1.8,6.5-1.8,10.4
		L763.1,667.9L763.1,667.9z"/>
	<path display="inline" fill="#31C5F4" stroke="#475D87" stroke-width="80" stroke-miterlimit="10" d="M700,509.4
		c4.1,0,7.6,1.3,10.4,3.9c2.8,2.4,4.1,5.5,4.1,9.2c0,3.5-1.5,6.5-4.1,9.2c-2.8,2.6-6.1,3.9-10.4,3.9c-4.1,0-7.6-1.3-10.4-3.9
		c-2.8-2.6-4.1-5.7-4.1-9.2c0-3.7,1.5-6.8,4.1-9.2C692.4,510.8,695.9,509.4,700,509.4z M700,563.8c3.7,0,6.8,0.8,9,2.2
		c2.4,1.5,3.5,3.5,3.5,5.7v96c0,2-1.3,3.9-3.5,5.7c-2.4,1.8-5.3,2.6-9,2.6c-3.7,0-6.5-0.8-9-2.6c-2.2-1.8-3.5-3.7-3.5-5.7v-96
		c0-2.4,1.3-4.3,3.5-5.7C693.5,564.5,696.3,563.8,700,563.8z"/>
	<path display="inline" fill="#31C5F4" stroke="#475D87" stroke-width="80" stroke-miterlimit="10" d="M634.4,563.8h30.8
		c2.2,0,3.9,1.1,5.1,2.8c1.3,1.7,1.8,4.1,1.8,6.3s-0.6,4.5-1.8,6.3c-1.3,1.8-2.8,2.8-5.1,2.8h-30.8v85.9c0,2.4-1.3,4.3-3.9,5.7
		c-2.4,1.5-5.5,2.2-9,2.2c-3.5,0-6.3-0.8-8.5-2.2c-2.2-1.5-3.5-3.5-3.5-5.7v-126c0-6.3,1.1-12.2,3.3-17.7c2.2-5.5,5.3-10.4,9.2-14.5
		c3.9-4.1,8.3-7.4,13.5-9.6c5.1-2.2,10.4-3.5,16.1-3.5h10.9c3.1,0,5.5,1.1,7.2,3.3c1.6,2.2,2.4,4.7,2.4,7.4c0,2.6-0.8,5.1-2.4,7.4
		c-1.6,2.2-4.1,3.3-7.2,3.3h-6.1c-6.3,0-11.6,2-15.7,6.1c-4.1,4.1-6.1,9.2-6.1,15.5L634.4,563.8L634.4,563.8z"/>
</g>
<g id="friend_1_" display="none" enable-background="new    ">
	<path display="inline" fill="none" stroke="#475D87" stroke-width="80" stroke-miterlimit="10" d="M570.7,497c3.7,0,6.5,0.8,9,2.2
		c2.2,1.5,3.5,3.5,3.5,5.7v163c0,2-1.3,3.9-3.5,5.7s-5.3,2.6-9,2.6c-3.1,0-5.9-0.8-8-2.6c-2.2-1.8-3.3-3.7-3.3-5.7v-8.3
		c-2.4,4.9-6.5,9.2-12.5,12.9c-6,3.7-12.7,5.5-20.3,5.5c-5.5,0-10.9-1.3-15.9-3.9c-5.1-2.6-9.4-6.1-13.3-10.4
		c-3.9-4.3-7-9.4-9.2-15.1c-2.2-5.7-3.5-11.6-3.5-17.7v-21.6c0-6.3,1.1-12.2,3.3-17.9c2.2-5.7,5.3-10.7,9.2-14.9
		c3.9-4.3,8.3-7.6,13.5-10c5.1-2.4,10.7-3.7,16.6-3.7c7.6,0,13.9,1.8,19.2,5.5c5.1,3.7,9,8,11.8,12.5v-75.5c0-2.4,1.3-4.3,3.5-5.7
		C563.9,497.7,567.1,497,570.7,497z M509.7,630.9c0,3.1,0.6,6.3,1.8,9.2c1.3,3.1,3.1,5.7,5.3,8c2.2,2.4,4.7,4.3,7.6,5.7
		c2.8,1.5,5.9,2,9.2,2c3.5,0,6.8-0.8,9.6-2.2c2.8-1.5,5.5-3.3,7.8-5.5c2.2-2,3.9-4.3,5.3-6.5c1.3-2.2,1.8-4.1,1.8-5.5v-27
		c0-3.9-0.6-7.2-2-10.4c-1.5-3.1-3.3-5.7-5.5-7.8c-2.2-2-4.9-3.7-7.8-4.9c-2.8-1.1-5.7-1.6-8.8-1.6c-3.3,0-6.5,0.6-9.4,2
		c-2.8,1.5-5.5,3.3-7.8,5.5c-2.2,2.2-3.9,4.9-5.3,8c-1.3,3.1-1.8,5.9-1.8,9L509.7,630.9L509.7,630.9z"/>
	<path display="inline" fill="#FFFFFF" stroke="#475D87" stroke-width="80" stroke-miterlimit="10" d="M392.1,667.9
		c0,2-1.3,3.9-3.9,5.7c-2.4,1.8-5.5,2.6-8.8,2.6c-3.7,0-6.5-0.8-9-2.6c-2.2-1.8-3.5-3.7-3.5-5.7v-96c0-2.4,1.3-4.3,3.5-5.7
		c2.2-1.5,5.3-2.2,9-2.2c3.1,0,5.7,0.8,8,2.2c2,1.5,3.3,3.5,3.3,5.7v8.5c2.4-4.5,6.3-8.8,11.6-12.5c5.3-3.7,12-5.5,20.3-5.5
		c5.5,0,10.9,1.3,15.7,3.7c4.9,2.4,9.4,5.7,13.1,10c3.7,4.3,6.8,9.2,9,14.9c2.2,5.7,3.3,11.6,3.3,17.9v58.9c0,2.6-1.3,4.7-3.9,6.1
		c-2.6,1.5-5.5,2-8.5,2c-2.8,0-5.5-0.6-8.3-2c-2.6-1.5-4.1-3.5-4.1-6.1V609c0-3.1-0.6-5.9-1.8-9c-1.3-3.1-3.1-5.7-5.1-8
		s-4.7-4.1-7.6-5.5c-2.8-1.5-6.1-2-9.4-2c-2.8,0-5.7,0.6-8.3,1.6c-2.8,1.1-5.3,2.6-7.4,4.9c-2,2.2-3.9,4.7-5.1,7.8
		c-1.3,3.1-1.8,6.5-1.8,10.4L392.1,667.9L392.1,667.9z"/>
	<path display="inline" fill="none" stroke="#475D87" stroke-width="80" stroke-miterlimit="10" d="M299.8,562.5
		c6.3,0,12.2,1.1,17.9,3.3c5.7,2,10.7,5.1,15.1,9c4.3,3.9,7.8,8.5,10.4,13.9c2.4,5.3,3.9,11.2,3.9,17.7c0,4.9-0.6,8.8-1.8,11.4
		c-1.3,2.8-2.8,4.7-4.9,6.1c-2,1.3-4.3,2-7,2.4c-2.6,0.4-5.3,0.4-8,0.4h-50v5.5c0,8,2.8,14.3,8.5,19c5.7,4.5,13.1,7,22.3,7
		c4.3,0,8-0.4,10.9-1.5c2.8-1.1,5.5-2,7.6-3.1c2-1.1,4.1-2,5.7-3.1c1.6-1.1,3.3-1.5,4.9-1.5c3.1,0,5.3,1.3,7.2,3.9
		c1.8,2.6,2.6,5.1,2.6,7.2c0,1.8-0.8,3.7-2.6,5.7c-1.8,2-4.5,4.1-8,5.9c-3.5,1.8-7.6,3.3-12.5,4.5c-4.9,1.3-10.2,1.8-16.4,1.8
		c-8,0-15.5-1.3-22.3-3.5s-12.5-5.5-17.4-9.6c-4.9-4.1-8.8-9-11.4-14.9c-2.6-5.7-4.1-12.2-4.1-19.4v-22.5c0-6.1,1.3-12,3.9-17.7
		c2.6-5.5,6.1-10.4,10.7-14.7s9.6-7.6,15.7-10C286.8,563.8,293.1,562.5,299.8,562.5z M314.8,611.3c3.5,0,5.7-0.4,7-1.5
		s1.8-2.8,1.8-5.7c0-6.3-2.2-11.6-7-16.1c-4.5-4.5-10.2-6.8-17.2-6.8c-3.3,0-6.5,0.6-9.4,1.6c-2.8,1.1-5.5,2.6-7.8,4.7
		s-3.9,4.3-5.3,7c-1.3,2.6-1.8,5.7-1.8,9v7.6h39.7L314.8,611.3L314.8,611.3z"/>
	<path display="inline" fill="none" stroke="#475D87" stroke-width="80" stroke-miterlimit="10" d="M216.1,509.4
		c4.1,0,7.6,1.3,10.4,3.9c2.8,2.4,4.1,5.5,4.1,9.2c0,3.5-1.5,6.5-4.1,9.2c-2.8,2.6-6.1,3.9-10.4,3.9c-4.1,0-7.6-1.3-10.4-3.9
		c-2.8-2.6-4.1-5.7-4.1-9.2c0-3.7,1.5-6.8,4.1-9.2C208.5,510.8,212,509.4,216.1,509.4z M216.1,563.8c3.7,0,6.8,0.8,9,2.2
		c2.4,1.5,3.5,3.5,3.5,5.7v96c0,2-1.3,3.9-3.5,5.7c-2.4,1.8-5.3,2.6-9,2.6c-3.7,0-6.5-0.8-9-2.6c-2.2-1.8-3.5-3.7-3.5-5.7v-96
		c0-2.4,1.3-4.3,3.5-5.7C209.6,564.5,212.4,563.8,216.1,563.8z"/>
	<path display="inline" fill="none" stroke="#475D87" stroke-width="80" stroke-miterlimit="10" d="M172,584.5
		c-3.7,0-7.2,0.8-10.7,2.4c-3.5,1.6-6.5,3.9-9.2,7c-2.7,3.1-4.9,6.8-6.5,11.1c-1.6,4.3-2.4,9.2-2.4,14.5v48.6c0,2-1.3,3.9-3.7,5.7
		c-2.4,1.8-5.5,2.6-9.2,2.6c-3.7,0-6.5-0.8-8.8-2.6c-2.2-1.8-3.3-3.7-3.3-5.7v-96c0-2.4,1.1-4.3,3.3-5.7c2.2-1.5,5.1-2.2,8.8-2.2
		c3.1,0,5.9,0.8,8,2.2c2.2,1.5,3.3,3.5,3.3,5.7v10.4c1.3-2.4,2.8-4.9,4.9-7.4c2-2.4,4.3-4.5,7-6.3s5.5-3.5,8.5-4.5
		c3.1-1.1,6.3-1.6,9.8-1.6h7.6c2.4,0,4.7,1.1,6.8,3.3c2,2.2,2.8,4.7,2.8,7.8s-1.1,5.7-2.8,8s-4.1,3.3-6.8,3.3H172V584.5z"/>
	<path display="inline" fill="none" stroke="#475D87" stroke-width="80" stroke-miterlimit="10" d="M65.8,563.8h30.8
		c2.2,0,3.9,1.1,5.1,2.8c1.3,1.8,1.8,4.1,1.8,6.3s-0.6,4.5-1.8,6.3c-1.3,1.8-2.8,2.8-5.1,2.8H65.8v85.9c0,2.4-1.3,4.3-3.9,5.7
		c-2.4,1.5-5.5,2.2-9,2.2s-6.3-0.8-8.5-2.2c-2.2-1.5-3.5-3.5-3.5-5.7v-126c0-6.3,1.1-12.2,3.3-17.7c2.2-5.5,5.3-10.4,9.2-14.5
		c3.9-4.1,8.3-7.4,13.5-9.6c5.1-2.2,10.4-3.5,16.1-3.5h10.9c3.1,0,5.5,1.1,7.2,3.3c1.6,2.2,2.4,4.7,2.4,7.4c0,2.6-0.8,5.1-2.4,7.4
		c-1.6,2.2-4.1,3.3-7.2,3.3h-6.1c-6.3,0-11.6,2-15.7,6.1c-4.1,4.1-6.1,9.2-6.1,15.5L65.8,563.8L65.8,563.8z"/>
</g>
<g id="finder" enable-background="new    ">
	<path fill="#3B5998" d="M1146.3,584.5c-3.7,0-7.2,0.8-10.7,2.4c-3.5,1.6-6.5,3.9-9.2,7c-2.6,3.1-4.9,6.8-6.5,11.1
		c-1.6,4.3-2.4,9.2-2.4,14.5v48.6c0,2-1.3,3.9-3.7,5.7c-2.4,1.8-5.5,2.6-9.2,2.6s-6.5-0.8-8.8-2.6s-3.3-3.7-3.3-5.7v-96
		c0-2.4,1.1-4.3,3.3-5.7c2.2-1.5,5.1-2.2,8.8-2.2c3.1,0,5.9,0.8,8,2.2c2.2,1.5,3.3,3.5,3.3,5.7v10.4c1.3-2.4,2.8-4.9,4.9-7.4
		c2-2.4,4.3-4.5,7-6.3c2.7-1.8,5.5-3.5,8.5-4.5c3.1-1.1,6.3-1.6,9.8-1.6h7.6c2.4,0,4.7,1.1,6.8,3.3c1.8,2,2.8,4.7,2.8,7.8
		s-1.1,5.7-2.8,8c-1.8,2-4.1,3.3-6.8,3.3h-7.4V584.5z"/>
	<path fill="#3B5998" d="M1025.4,562.5c6.3,0,12.2,1.1,17.9,3.3c5.7,2,10.7,5.1,15.1,9c4.3,3.9,7.8,8.5,10.4,13.9
		c2.4,5.3,3.9,11.2,3.9,17.7c0,4.9-0.6,8.8-1.8,11.4c-1.3,2.8-2.8,4.7-4.9,6.1c-2,1.3-4.3,2-7,2.4c-2.6,0.4-5.3,0.4-8,0.4h-50.2v5.5
		c0,8,2.8,14.3,8.5,19c5.7,4.5,13.1,7,22.3,7c4.3,0,8-0.4,10.9-1.5c2.8-1.1,5.5-2,7.6-3.1c2-1.1,4.1-2,5.7-3.1
		c1.6-1.1,3.3-1.5,4.9-1.5c3.1,0,5.3,1.3,7.2,3.9c1.8,2.6,2.6,5.1,2.6,7.2c0,1.8-0.8,3.7-2.6,5.7c-1.8,2-4.5,4.1-8,5.9
		c-3.5,1.8-7.6,3.3-12.5,4.5c-4.9,1.3-10.2,1.8-16.4,1.8c-8.1,0-15.5-1.3-22.3-3.5c-6.8-2.2-12.5-5.5-17.4-9.6
		c-4.9-4.1-8.8-9-11.4-14.9c-2.6-5.7-4.1-12.2-4.1-19.4v-22.5c0-6.1,1.3-12,3.9-17.7c2.6-5.5,6.1-10.4,10.7-14.7
		c4.5-4.3,9.6-7.6,15.7-10C1012.1,563.8,1018.7,562.5,1025.4,562.5z M1040.3,611.3c3.5,0,5.7-0.4,7-1.5c1.3-1.1,1.8-2.8,1.8-5.7
		c0-6.3-2.2-11.6-7-16.1c-4.5-4.5-10.2-6.8-17.2-6.8c-3.3,0-6.5,0.6-9.4,1.6c-2.8,1.1-5.5,2.6-7.8,4.7c-2.2,2-3.9,4.3-5.3,7
		c-1.3,2.6-1.8,5.7-1.8,9v7.6h39.7L1040.3,611.3L1040.3,611.3z"/>
	<path fill="#3B5998" d="M941.6,497c3.7,0,6.5,0.8,9,2.2c2.2,1.5,3.5,3.5,3.5,5.7v163c0,2-1.3,3.9-3.5,5.7c-2.2,1.8-5.3,2.6-9,2.6
		c-3.3,0-5.9-0.8-8.1-2.6c-2.2-1.8-3.3-3.7-3.3-5.7v-8.3c-2.4,4.9-6.5,9.2-12.5,12.9c-5.9,3.7-12.7,5.5-20.3,5.5
		c-5.5,0-10.9-1.3-15.9-3.9c-5.1-2.6-9.4-6.1-13.3-10.4s-7-9.4-9.2-15.1s-3.5-11.6-3.5-17.7v-21.6c0-6.3,1.1-12.2,3.3-17.9
		c2.2-5.7,5.3-10.7,9.2-14.9c3.9-4.3,8.3-7.6,13.5-10c5.1-2.4,10.7-3.7,16.6-3.7c7.6,0,13.9,1.8,19.2,5.5c5.1,3.7,9,8,11.6,12.5
		v-75.5c0-2.4,1.3-4.3,3.5-5.7C934.9,497.7,937.9,497,941.6,497z M880.5,630.9c0,3.1,0.6,6.3,1.8,9.2c1.3,3.1,3.1,5.7,5.3,8
		c2.2,2.4,4.7,4.3,7.6,5.7c2.8,1.5,5.9,2,9.2,2c3.5,0,6.8-0.8,9.6-2.2c2.8-1.5,5.5-3.3,7.8-5.5c2.2-2,3.9-4.3,5.3-6.5
		c1.3-2.2,1.8-4.1,1.8-5.5v-27c0-3.9-0.6-7.2-2-10.4c-1.5-3.3-3.3-5.7-5.5-7.8s-4.9-3.7-7.8-4.9c-2.8-1.1-5.7-1.6-8.8-1.6
		c-3.3,0-6.5,0.6-9.4,2c-2.8,1.5-5.5,3.3-7.8,5.5s-3.9,4.9-5.3,8c-1.3,3.1-1.8,5.9-1.8,9L880.5,630.9L880.5,630.9z"/>
	<path fill="#3B5998" d="M763.1,667.9c0,2-1.3,3.9-3.9,5.7c-2.4,1.8-5.5,2.6-8.8,2.6c-3.7,0-6.5-0.8-9-2.6c-2.2-1.8-3.5-3.7-3.5-5.7
		v-96c0-2.4,1.3-4.3,3.5-5.7c2.2-1.5,5.3-2.2,9-2.2c3.1,0,5.7,0.8,8,2.2c2,1.5,3.3,3.5,3.3,5.7v8.5c2.4-4.5,6.3-8.8,11.6-12.5
		c5.3-3.7,12-5.5,20.3-5.5c5.5,0,10.9,1.3,15.7,3.7c4.9,2.4,9.4,5.7,13.1,10c3.7,4.3,6.8,9.2,9,14.9s3.3,11.6,3.3,17.9v58.9
		c0,2.6-1.3,4.7-3.9,6.1c-2.6,1.5-5.5,2-8.5,2c-2.8,0-5.7-0.6-8.3-2c-2.6-1.5-4.1-3.5-4.1-6.1V609c0-3.1-0.6-5.9-1.8-9
		c-1.3-3.1-3.1-5.7-5.1-8s-4.7-4.1-7.6-5.5c-2.8-1.5-6.1-2-9.4-2c-2.8,0-5.7,0.6-8.3,1.6c-2.8,1.1-5.3,2.6-7.4,4.9
		c-2,2-3.9,4.7-5.1,7.8s-1.8,6.5-1.8,10.4L763.1,667.9L763.1,667.9z"/>
	<path fill="#3B5998" d="M700,509.4c4.1,0,7.6,1.3,10.4,3.9c2.8,2.4,4.1,5.5,4.1,9.2c0,3.5-1.5,6.5-4.1,9.2
		c-2.8,2.6-6.1,3.9-10.4,3.9c-4.1,0-7.6-1.3-10.4-3.9c-2.8-2.6-4.1-5.7-4.1-9.2c0-3.7,1.5-6.8,4.1-9.2
		C692.4,510.8,695.9,509.4,700,509.4z M700,563.8c3.7,0,6.8,0.8,9,2.2c2.4,1.5,3.5,3.5,3.5,5.7v96c0,2-1.3,3.9-3.5,5.7
		c-2.4,1.8-5.3,2.6-9,2.6c-3.7,0-6.5-0.8-9-2.6c-2.2-1.8-3.5-3.7-3.5-5.7v-96c0-2.4,1.3-4.3,3.5-5.7
		C693.5,564.5,696.3,563.8,700,563.8z"/>
	<path fill="#3B5998" d="M634.4,563.8h30.8c2.2,0,3.9,1.1,5.1,2.8c1.3,1.7,1.8,4.1,1.8,6.3s-0.6,4.5-1.8,6.3
		c-1.3,1.8-2.8,2.8-5.1,2.8h-30.8v85.9c0,2.4-1.3,4.3-3.9,5.7c-2.4,1.5-5.5,2.2-9,2.2c-3.5,0-6.3-0.8-8.5-2.2
		c-2.2-1.5-3.5-3.5-3.5-5.7v-126c0-6.3,1.1-12.2,3.3-17.7c2.2-5.5,5.3-10.4,9.2-14.5c3.9-4.1,8.3-7.4,13.5-9.6
		c5.1-2.2,10.4-3.5,16.1-3.5h10.9c3.1,0,5.5,1.1,7.2,3.3c1.6,2.2,2.4,4.7,2.4,7.4c0,2.6-0.8,5.1-2.4,7.4c-1.6,2.2-4.1,3.3-7.2,3.3
		h-6.1c-6.3,0-11.6,2-15.7,6.1c-4.1,4.1-6.1,9.2-6.1,15.5L634.4,563.8L634.4,563.8z"/>
</g>
<g id="friend" enable-background="new    ">
	<path fill="#FFFFFF" d="M570.7,497c3.7,0,6.5,0.8,9,2.2c2.2,1.5,3.5,3.5,3.5,5.7v163c0,2-1.3,3.9-3.5,5.7s-5.3,2.6-9,2.6
		c-3.1,0-5.9-0.8-8-2.6c-2.2-1.8-3.3-3.7-3.3-5.7v-8.3c-2.4,4.9-6.5,9.2-12.5,12.9c-6,3.7-12.7,5.5-20.3,5.5
		c-5.5,0-10.9-1.3-15.9-3.9c-5.1-2.6-9.4-6.1-13.3-10.4c-3.9-4.3-7-9.4-9.2-15.1c-2.2-5.7-3.5-11.6-3.5-17.7v-21.6
		c0-6.3,1.1-12.2,3.3-17.9c2.2-5.7,5.3-10.7,9.2-14.9c3.9-4.3,8.3-7.6,13.5-10c5.1-2.4,10.7-3.7,16.6-3.7c7.6,0,13.9,1.8,19.2,5.5
		c5.1,3.7,9,8,11.8,12.5v-75.5c0-2.4,1.3-4.3,3.5-5.7C563.9,497.7,567.1,497,570.7,497z M509.7,630.9c0,3.1,0.6,6.3,1.8,9.2
		c1.3,3.1,3.1,5.7,5.3,8c2.2,2.4,4.7,4.3,7.6,5.7c2.8,1.5,5.9,2,9.2,2c3.5,0,6.8-0.8,9.6-2.2c2.8-1.5,5.5-3.3,7.8-5.5
		c2.2-2,3.9-4.3,5.3-6.5c1.3-2.2,1.8-4.1,1.8-5.5v-27c0-3.9-0.6-7.2-2-10.4c-1.5-3.1-3.3-5.7-5.5-7.8c-2.2-2-4.9-3.7-7.8-4.9
		c-2.8-1.1-5.7-1.6-8.8-1.6c-3.3,0-6.5,0.6-9.4,2c-2.8,1.5-5.5,3.3-7.8,5.5c-2.2,2.2-3.9,4.9-5.3,8c-1.3,3.1-1.8,5.9-1.8,9
		L509.7,630.9L509.7,630.9z"/>
	<path fill="#FFFFFF" d="M392.1,667.9c0,2-1.3,3.9-3.9,5.7c-2.4,1.8-5.5,2.6-8.8,2.6c-3.7,0-6.5-0.8-9-2.6c-2.2-1.8-3.5-3.7-3.5-5.7
		v-96c0-2.4,1.3-4.3,3.5-5.7c2.2-1.5,5.3-2.2,9-2.2c3.1,0,5.7,0.8,8,2.2c2,1.5,3.3,3.5,3.3,5.7v8.5c2.4-4.5,6.3-8.8,11.6-12.5
		c5.3-3.7,12-5.5,20.3-5.5c5.5,0,10.9,1.3,15.7,3.7c4.9,2.4,9.4,5.7,13.1,10c3.7,4.3,6.8,9.2,9,14.9c2.2,5.7,3.3,11.6,3.3,17.9v58.9
		c0,2.6-1.3,4.7-3.9,6.1c-2.6,1.5-5.5,2-8.5,2c-2.8,0-5.5-0.6-8.3-2c-2.6-1.5-4.1-3.5-4.1-6.1V609c0-3.1-0.6-5.9-1.8-9
		c-1.3-3.1-3.1-5.7-5.1-8s-4.7-4.1-7.6-5.5c-2.8-1.5-6.1-2-9.4-2c-2.8,0-5.7,0.6-8.3,1.6c-2.8,1.1-5.3,2.6-7.4,4.9
		c-2,2.2-3.9,4.7-5.1,7.8c-1.3,3.1-1.8,6.5-1.8,10.4L392.1,667.9L392.1,667.9z"/>
	<path fill="#FFFFFF" d="M299.8,562.5c6.3,0,12.2,1.1,17.9,3.3c5.7,2,10.7,5.1,15.1,9c4.3,3.9,7.8,8.5,10.4,13.9
		c2.4,5.3,3.9,11.2,3.9,17.7c0,4.9-0.6,8.8-1.8,11.4c-1.3,2.8-2.8,4.7-4.9,6.1c-2,1.3-4.3,2-7,2.4c-2.6,0.4-5.3,0.4-8,0.4h-50v5.5
		c0,8,2.8,14.3,8.5,19c5.7,4.5,13.1,7,22.3,7c4.3,0,8-0.4,10.9-1.5c2.8-1.1,5.5-2,7.6-3.1c2-1.1,4.1-2,5.7-3.1
		c1.6-1.1,3.3-1.5,4.9-1.5c3.1,0,5.3,1.3,7.2,3.9c1.8,2.6,2.6,5.1,2.6,7.2c0,1.8-0.8,3.7-2.6,5.7c-1.8,2-4.5,4.1-8,5.9
		c-3.5,1.8-7.6,3.3-12.5,4.5c-4.9,1.3-10.2,1.8-16.4,1.8c-8,0-15.5-1.3-22.3-3.5s-12.5-5.5-17.4-9.6c-4.9-4.1-8.8-9-11.4-14.9
		c-2.6-5.7-4.1-12.2-4.1-19.4v-22.5c0-6.1,1.3-12,3.9-17.7c2.6-5.5,6.1-10.4,10.7-14.7s9.6-7.6,15.7-10
		C286.8,563.8,293.1,562.5,299.8,562.5z M314.8,611.3c3.5,0,5.7-0.4,7-1.5s1.8-2.8,1.8-5.7c0-6.3-2.2-11.6-7-16.1
		c-4.5-4.5-10.2-6.8-17.2-6.8c-3.3,0-6.5,0.6-9.4,1.6c-2.8,1.1-5.5,2.6-7.8,4.7s-3.9,4.3-5.3,7c-1.3,2.6-1.8,5.7-1.8,9v7.6h39.7
		L314.8,611.3L314.8,611.3z"/>
	<path fill="#FFFFFF" d="M216.1,509.4c4.1,0,7.6,1.3,10.4,3.9c2.8,2.4,4.1,5.5,4.1,9.2c0,3.5-1.5,6.5-4.1,9.2
		c-2.8,2.6-6.1,3.9-10.4,3.9c-4.1,0-7.6-1.3-10.4-3.9c-2.8-2.6-4.1-5.7-4.1-9.2c0-3.7,1.5-6.8,4.1-9.2
		C208.5,510.8,212,509.4,216.1,509.4z M216.1,563.8c3.7,0,6.8,0.8,9,2.2c2.4,1.5,3.5,3.5,3.5,5.7v96c0,2-1.3,3.9-3.5,5.7
		c-2.4,1.8-5.3,2.6-9,2.6c-3.7,0-6.5-0.8-9-2.6c-2.2-1.8-3.5-3.7-3.5-5.7v-96c0-2.4,1.3-4.3,3.5-5.7
		C209.6,564.5,212.4,563.8,216.1,563.8z"/>
	<path fill="#FFFFFF" d="M172,584.5c-3.7,0-7.2,0.8-10.7,2.4c-3.5,1.6-6.5,3.9-9.2,7c-2.7,3.1-4.9,6.8-6.5,11.1
		c-1.6,4.3-2.4,9.2-2.4,14.5v48.6c0,2-1.3,3.9-3.7,5.7c-2.4,1.8-5.5,2.6-9.2,2.6c-3.7,0-6.5-0.8-8.8-2.6c-2.2-1.8-3.3-3.7-3.3-5.7
		v-96c0-2.4,1.1-4.3,3.3-5.7c2.2-1.5,5.1-2.2,8.8-2.2c3.1,0,5.9,0.8,8,2.2c2.2,1.5,3.3,3.5,3.3,5.7v10.4c1.3-2.4,2.8-4.9,4.9-7.4
		c2-2.4,4.3-4.5,7-6.3s5.5-3.5,8.5-4.5c3.1-1.1,6.3-1.6,9.8-1.6h7.6c2.4,0,4.7,1.1,6.8,3.3c2,2.2,2.8,4.7,2.8,7.8s-1.1,5.7-2.8,8
		s-4.1,3.3-6.8,3.3H172V584.5z"/>
	<path fill="#FFFFFF" d="M65.8,563.8h30.8c2.2,0,3.9,1.1,5.1,2.8c1.3,1.8,1.8,4.1,1.8,6.3s-0.6,4.5-1.8,6.3
		c-1.3,1.8-2.8,2.8-5.1,2.8H65.8v85.9c0,2.4-1.3,4.3-3.9,5.7c-2.4,1.5-5.5,2.2-9,2.2s-6.3-0.8-8.5-2.2c-2.2-1.5-3.5-3.5-3.5-5.7
		v-126c0-6.3,1.1-12.2,3.3-17.7c2.2-5.5,5.3-10.4,9.2-14.5c3.9-4.1,8.3-7.4,13.5-9.6c5.1-2.2,10.4-3.5,16.1-3.5h10.9
		c3.1,0,5.5,1.1,7.2,3.3c1.6,2.2,2.4,4.7,2.4,7.4c0,2.6-0.8,5.1-2.4,7.4c-1.6,2.2-4.1,3.3-7.2,3.3h-6.1c-6.3,0-11.6,2-15.7,6.1
		c-4.1,4.1-6.1,9.2-6.1,15.5L65.8,563.8L65.8,563.8z"/>
</g>
</svg>
